<svg width="16" height="16" viewBox="0 0 16 16" fill="none" xmlns="http://www.w3.org/2000/svg">
<path d="M16 9.7514V15.6667H12.5707V10.1476C12.5707 8.76112 12.0747 7.81493 10.8334 7.81493C9.88579 7.81493 9.32189 8.45259 9.07381 9.06943C8.98334 9.28995 8.96006 9.59688 8.96006 9.90556V15.6667H5.52958C5.52958 15.6667 5.57579 6.31911 5.52958 5.35063H8.95972V6.81289C8.95276 6.82383 8.94372 6.83562 8.93718 6.84622H8.95972V6.81289C9.41545 6.11098 10.2293 5.10828 12.051 5.10828C14.308 5.10824 16 6.5827 16 9.7514ZM1.94116 0.377766C0.767605 0.377766 0 1.14753 0 2.15979C0 3.15 0.745397 3.94312 1.89563 3.94312H1.91855C3.11484 3.94312 3.85882 3.15015 3.85882 2.15979C3.83628 1.14753 3.11484 0.377766 1.94116 0.377766ZM0.20374 15.6667H3.63291V5.35063H0.20374V15.6667Z" fill="#282630"/>
</svg>
