<svg width="22" height="22" viewBox="0 0 22 22" fill="none" xmlns="http://www.w3.org/2000/svg">
<path fill-rule="evenodd" clip-rule="evenodd" d="M15.9645 9.46448C15.9645 13.0543 13.0543 15.9645 9.46448 15.9645C5.87463 15.9645 2.96448 13.0543 2.96448 9.46448C2.96448 5.87463 5.87463 2.96448 9.46448 2.96448C13.0543 2.96448 15.9645 5.87463 15.9645 9.46448ZM14.7263 16.1405C13.279 17.2828 11.4514 17.9645 9.46448 17.9645C4.77006 17.9645 0.964478 14.1589 0.964478 9.46448C0.964478 4.77006 4.77006 0.964478 9.46448 0.964478C14.1589 0.964478 17.9645 4.77006 17.9645 9.46448C17.9645 11.4513 17.2828 13.279 16.1405 14.7263L21.0356 19.6213L19.6214 21.0355L14.7263 16.1405Z" fill="#282630"/>
</svg>
