<svg width="16" height="14" viewBox="0 0 16 14" fill="none" xmlns="http://www.w3.org/2000/svg">
<path d="M16 2.20567C15.405 2.46667 14.771 2.63967 14.11 2.72367C14.79 2.31767 15.309 1.67967 15.553 0.910668C14.919 1.28867 14.219 1.55567 13.473 1.70467C12.871 1.06367 12.013 0.666668 11.077 0.666668C9.261 0.666668 7.799 2.14067 7.799 3.94767C7.799 4.20767 7.821 4.45767 7.875 4.69567C5.148 4.56267 2.735 3.25567 1.114 1.26467C0.831 1.75567 0.665 2.31767 0.665 2.92267C0.665 4.05867 1.25 5.06567 2.122 5.64867C1.595 5.63867 1.078 5.48567 0.64 5.24467C0.64 5.25467 0.64 5.26767 0.64 5.28067C0.64 6.87467 1.777 8.19867 3.268 8.50367C3.001 8.57667 2.71 8.61167 2.408 8.61167C2.198 8.61167 1.986 8.59967 1.787 8.55567C2.212 9.85467 3.418 10.8097 4.852 10.8407C3.736 11.7137 2.319 12.2397 0.785 12.2397C0.516 12.2397 0.258 12.2277 0 12.1947C1.453 13.1317 3.175 13.6667 5.032 13.6667C11.068 13.6667 14.368 8.66667 14.368 4.33267C14.368 4.18767 14.363 4.04767 14.356 3.90867C15.007 3.44667 15.554 2.86967 16 2.20567Z" fill="#282630"/>
</svg>
