<svg width="20" height="20" viewBox="0 0 20 20" fill="none" xmlns="http://www.w3.org/2000/svg">
<path fill-rule="evenodd" clip-rule="evenodd" d="M10 2C11.6569 2 13 3.34315 13 5H7.00005C7.00005 3.34315 8.34319 2 10 2ZM5.00005 5C5.00005 2.23858 7.23862 0 10 0C12.7615 0 15 2.23858 15 5H18L19.3962 15.4713C19.716 17.8693 17.8505 20 15.4313 20H4.56878C2.14962 20 0.284142 17.8693 0.603867 15.4713L2.00005 5H5.00005ZM15 7H13H7.00005H5.00005H3.75108L2.58632 15.7357C2.42646 16.9346 3.3592 18 4.56878 18H15.4313C16.6409 18 17.5736 16.9346 17.4138 15.7357L16.249 7H15Z" fill="#282630"/>
</svg>
